<?xml version="1.0" encoding="utf-8" standalone="no"?>
<!DOCTYPE svg PUBLIC "-//W3C//DTD SVG 1.1//EN"
  "http://www.w3.org/Graphics/SVG/1.1/DTD/svg11.dtd">
<svg xmlns:xlink="http://www.w3.org/1999/xlink" width="1296pt" height="360pt" viewBox="0 0 1296 360" xmlns="http://www.w3.org/2000/svg" version="1.1">
 <metadata>
  <rdf:RDF xmlns:dc="http://purl.org/dc/elements/1.1/" xmlns:cc="http://creativecommons.org/ns#" xmlns:rdf="http://www.w3.org/1999/02/22-rdf-syntax-ns#">
   <cc:Work>
    <dc:type rdf:resource="http://purl.org/dc/dcmitype/StillImage"/>
    <dc:date>2024-12-19T16:26:01.391855</dc:date>
    <dc:format>image/svg+xml</dc:format>
    <dc:creator>
     <cc:Agent>
      <dc:title>Matplotlib v3.9.2, https://matplotlib.org/</dc:title>
     </cc:Agent>
    </dc:creator>
   </cc:Work>
  </rdf:RDF>
 </metadata>
 <defs>
  <style type="text/css">*{stroke-linejoin: round; stroke-linecap: butt}</style>
 </defs>
 <g id="figure_1">
  <g id="patch_1">
   <path d="M 0 360 
L 1296 360 
L 1296 0 
L 0 0 
z
" style="fill: #ffffff"/>
  </g>
  <g id="axes_1">
   <g id="patch_2">
    <path d="M 162 320.4 
L 457.411765 320.4 
L 457.411765 43.2 
L 162 43.2 
z
" style="fill: #ffffff"/>
   </g>
   <g id="matplotlib.axis_1">
    <g id="xtick_1">
     <g id="line2d_1">
      <defs>
       <path id="mf1bdaf46e0" d="M 0 0 
L 0 3.5 
" style="stroke: #000000; stroke-width: 0.8"/>
      </defs>
      <g>
       <use xlink:href="#mf1bdaf46e0" x="172.715119" y="320.4" style="stroke: #000000; stroke-width: 0.8"/>
      </g>
     </g>
     <g id="text_1">
      <!-- 0 -->
      <g transform="translate(169.533869 334.998438) scale(0.1 -0.1)">
       <defs>
        <path id="DejaVuSans-30" d="M 2034 4250 
Q 1547 4250 1301 3770 
Q 1056 3291 1056 2328 
Q 1056 1369 1301 889 
Q 1547 409 2034 409 
Q 2525 409 2770 889 
Q 3016 1369 3016 2328 
Q 3016 3291 2770 3770 
Q 2525 4250 2034 4250 
z
M 2034 4750 
Q 2819 4750 3233 4129 
Q 3647 3509 3647 2328 
Q 3647 1150 3233 529 
Q 2819 -91 2034 -91 
Q 1250 -91 836 529 
Q 422 1150 422 2328 
Q 422 3509 836 4129 
Q 1250 4750 2034 4750 
z
" transform="scale(0.015625)"/>
       </defs>
       <use xlink:href="#DejaVuSans-30"/>
      </g>
     </g>
    </g>
    <g id="xtick_2">
     <g id="line2d_2">
      <g>
       <use xlink:href="#mf1bdaf46e0" x="226.968887" y="320.4" style="stroke: #000000; stroke-width: 0.8"/>
      </g>
     </g>
     <g id="text_2">
      <!-- 20 -->
      <g transform="translate(220.606387 334.998438) scale(0.1 -0.1)">
       <defs>
        <path id="DejaVuSans-32" d="M 1228 531 
L 3431 531 
L 3431 0 
L 469 0 
L 469 531 
Q 828 903 1448 1529 
Q 2069 2156 2228 2338 
Q 2531 2678 2651 2914 
Q 2772 3150 2772 3378 
Q 2772 3750 2511 3984 
Q 2250 4219 1831 4219 
Q 1534 4219 1204 4116 
Q 875 4013 500 3803 
L 500 4441 
Q 881 4594 1212 4672 
Q 1544 4750 1819 4750 
Q 2544 4750 2975 4387 
Q 3406 4025 3406 3419 
Q 3406 3131 3298 2873 
Q 3191 2616 2906 2266 
Q 2828 2175 2409 1742 
Q 1991 1309 1228 531 
z
" transform="scale(0.015625)"/>
       </defs>
       <use xlink:href="#DejaVuSans-32"/>
       <use xlink:href="#DejaVuSans-30" x="63.623047"/>
      </g>
     </g>
    </g>
    <g id="xtick_3">
     <g id="line2d_3">
      <g>
       <use xlink:href="#mf1bdaf46e0" x="281.222654" y="320.4" style="stroke: #000000; stroke-width: 0.8"/>
      </g>
     </g>
     <g id="text_3">
      <!-- 40 -->
      <g transform="translate(274.860154 334.998438) scale(0.1 -0.1)">
       <defs>
        <path id="DejaVuSans-34" d="M 2419 4116 
L 825 1625 
L 2419 1625 
L 2419 4116 
z
M 2253 4666 
L 3047 4666 
L 3047 1625 
L 3713 1625 
L 3713 1100 
L 3047 1100 
L 3047 0 
L 2419 0 
L 2419 1100 
L 313 1100 
L 313 1709 
L 2253 4666 
z
" transform="scale(0.015625)"/>
       </defs>
       <use xlink:href="#DejaVuSans-34"/>
       <use xlink:href="#DejaVuSans-30" x="63.623047"/>
      </g>
     </g>
    </g>
    <g id="xtick_4">
     <g id="line2d_4">
      <g>
       <use xlink:href="#mf1bdaf46e0" x="335.476422" y="320.4" style="stroke: #000000; stroke-width: 0.8"/>
      </g>
     </g>
     <g id="text_4">
      <!-- 60 -->
      <g transform="translate(329.113922 334.998438) scale(0.1 -0.1)">
       <defs>
        <path id="DejaVuSans-36" d="M 2113 2584 
Q 1688 2584 1439 2293 
Q 1191 2003 1191 1497 
Q 1191 994 1439 701 
Q 1688 409 2113 409 
Q 2538 409 2786 701 
Q 3034 994 3034 1497 
Q 3034 2003 2786 2293 
Q 2538 2584 2113 2584 
z
M 3366 4563 
L 3366 3988 
Q 3128 4100 2886 4159 
Q 2644 4219 2406 4219 
Q 1781 4219 1451 3797 
Q 1122 3375 1075 2522 
Q 1259 2794 1537 2939 
Q 1816 3084 2150 3084 
Q 2853 3084 3261 2657 
Q 3669 2231 3669 1497 
Q 3669 778 3244 343 
Q 2819 -91 2113 -91 
Q 1303 -91 875 529 
Q 447 1150 447 2328 
Q 447 3434 972 4092 
Q 1497 4750 2381 4750 
Q 2619 4750 2861 4703 
Q 3103 4656 3366 4563 
z
" transform="scale(0.015625)"/>
       </defs>
       <use xlink:href="#DejaVuSans-36"/>
       <use xlink:href="#DejaVuSans-30" x="63.623047"/>
      </g>
     </g>
    </g>
    <g id="xtick_5">
     <g id="line2d_5">
      <g>
       <use xlink:href="#mf1bdaf46e0" x="389.73019" y="320.4" style="stroke: #000000; stroke-width: 0.8"/>
      </g>
     </g>
     <g id="text_5">
      <!-- 80 -->
      <g transform="translate(383.36769 334.998438) scale(0.1 -0.1)">
       <defs>
        <path id="DejaVuSans-38" d="M 2034 2216 
Q 1584 2216 1326 1975 
Q 1069 1734 1069 1313 
Q 1069 891 1326 650 
Q 1584 409 2034 409 
Q 2484 409 2743 651 
Q 3003 894 3003 1313 
Q 3003 1734 2745 1975 
Q 2488 2216 2034 2216 
z
M 1403 2484 
Q 997 2584 770 2862 
Q 544 3141 544 3541 
Q 544 4100 942 4425 
Q 1341 4750 2034 4750 
Q 2731 4750 3128 4425 
Q 3525 4100 3525 3541 
Q 3525 3141 3298 2862 
Q 3072 2584 2669 2484 
Q 3125 2378 3379 2068 
Q 3634 1759 3634 1313 
Q 3634 634 3220 271 
Q 2806 -91 2034 -91 
Q 1263 -91 848 271 
Q 434 634 434 1313 
Q 434 1759 690 2068 
Q 947 2378 1403 2484 
z
M 1172 3481 
Q 1172 3119 1398 2916 
Q 1625 2713 2034 2713 
Q 2441 2713 2670 2916 
Q 2900 3119 2900 3481 
Q 2900 3844 2670 4047 
Q 2441 4250 2034 4250 
Q 1625 4250 1398 4047 
Q 1172 3844 1172 3481 
z
" transform="scale(0.015625)"/>
       </defs>
       <use xlink:href="#DejaVuSans-38"/>
       <use xlink:href="#DejaVuSans-30" x="63.623047"/>
      </g>
     </g>
    </g>
    <g id="xtick_6">
     <g id="line2d_6">
      <g>
       <use xlink:href="#mf1bdaf46e0" x="443.983957" y="320.4" style="stroke: #000000; stroke-width: 0.8"/>
      </g>
     </g>
     <g id="text_6">
      <!-- 100 -->
      <g transform="translate(434.440207 334.998438) scale(0.1 -0.1)">
       <defs>
        <path id="DejaVuSans-31" d="M 794 531 
L 1825 531 
L 1825 4091 
L 703 3866 
L 703 4441 
L 1819 4666 
L 2450 4666 
L 2450 531 
L 3481 531 
L 3481 0 
L 794 0 
L 794 531 
z
" transform="scale(0.015625)"/>
       </defs>
       <use xlink:href="#DejaVuSans-31"/>
       <use xlink:href="#DejaVuSans-30" x="63.623047"/>
       <use xlink:href="#DejaVuSans-30" x="127.246094"/>
      </g>
     </g>
    </g>
    <g id="text_7">
     <!-- epoch -->
     <g transform="translate(294.477757 348.676562) scale(0.1 -0.1)">
      <defs>
       <path id="DejaVuSans-65" d="M 3597 1894 
L 3597 1613 
L 953 1613 
Q 991 1019 1311 708 
Q 1631 397 2203 397 
Q 2534 397 2845 478 
Q 3156 559 3463 722 
L 3463 178 
Q 3153 47 2828 -22 
Q 2503 -91 2169 -91 
Q 1331 -91 842 396 
Q 353 884 353 1716 
Q 353 2575 817 3079 
Q 1281 3584 2069 3584 
Q 2775 3584 3186 3129 
Q 3597 2675 3597 1894 
z
M 3022 2063 
Q 3016 2534 2758 2815 
Q 2500 3097 2075 3097 
Q 1594 3097 1305 2825 
Q 1016 2553 972 2059 
L 3022 2063 
z
" transform="scale(0.015625)"/>
       <path id="DejaVuSans-70" d="M 1159 525 
L 1159 -1331 
L 581 -1331 
L 581 3500 
L 1159 3500 
L 1159 2969 
Q 1341 3281 1617 3432 
Q 1894 3584 2278 3584 
Q 2916 3584 3314 3078 
Q 3713 2572 3713 1747 
Q 3713 922 3314 415 
Q 2916 -91 2278 -91 
Q 1894 -91 1617 61 
Q 1341 213 1159 525 
z
M 3116 1747 
Q 3116 2381 2855 2742 
Q 2594 3103 2138 3103 
Q 1681 3103 1420 2742 
Q 1159 2381 1159 1747 
Q 1159 1113 1420 752 
Q 1681 391 2138 391 
Q 2594 391 2855 752 
Q 3116 1113 3116 1747 
z
" transform="scale(0.015625)"/>
       <path id="DejaVuSans-6f" d="M 1959 3097 
Q 1497 3097 1228 2736 
Q 959 2375 959 1747 
Q 959 1119 1226 758 
Q 1494 397 1959 397 
Q 2419 397 2687 759 
Q 2956 1122 2956 1747 
Q 2956 2369 2687 2733 
Q 2419 3097 1959 3097 
z
M 1959 3584 
Q 2709 3584 3137 3096 
Q 3566 2609 3566 1747 
Q 3566 888 3137 398 
Q 2709 -91 1959 -91 
Q 1206 -91 779 398 
Q 353 888 353 1747 
Q 353 2609 779 3096 
Q 1206 3584 1959 3584 
z
" transform="scale(0.015625)"/>
       <path id="DejaVuSans-63" d="M 3122 3366 
L 3122 2828 
Q 2878 2963 2633 3030 
Q 2388 3097 2138 3097 
Q 1578 3097 1268 2742 
Q 959 2388 959 1747 
Q 959 1106 1268 751 
Q 1578 397 2138 397 
Q 2388 397 2633 464 
Q 2878 531 3122 666 
L 3122 134 
Q 2881 22 2623 -34 
Q 2366 -91 2075 -91 
Q 1284 -91 818 406 
Q 353 903 353 1747 
Q 353 2603 823 3093 
Q 1294 3584 2113 3584 
Q 2378 3584 2631 3529 
Q 2884 3475 3122 3366 
z
" transform="scale(0.015625)"/>
       <path id="DejaVuSans-68" d="M 3513 2113 
L 3513 0 
L 2938 0 
L 2938 2094 
Q 2938 2591 2744 2837 
Q 2550 3084 2163 3084 
Q 1697 3084 1428 2787 
Q 1159 2491 1159 1978 
L 1159 0 
L 581 0 
L 581 4863 
L 1159 4863 
L 1159 2956 
Q 1366 3272 1645 3428 
Q 1925 3584 2291 3584 
Q 2894 3584 3203 3211 
Q 3513 2838 3513 2113 
z
" transform="scale(0.015625)"/>
      </defs>
      <use xlink:href="#DejaVuSans-65"/>
      <use xlink:href="#DejaVuSans-70" x="61.523438"/>
      <use xlink:href="#DejaVuSans-6f" x="125"/>
      <use xlink:href="#DejaVuSans-63" x="186.181641"/>
      <use xlink:href="#DejaVuSans-68" x="241.162109"/>
     </g>
    </g>
   </g>
   <g id="matplotlib.axis_2">
    <g id="ytick_1">
     <g id="line2d_7">
      <defs>
       <path id="m378df2d7a8" d="M 0 0 
L -3.5 0 
" style="stroke: #000000; stroke-width: 0.8"/>
      </defs>
      <g>
       <use xlink:href="#m378df2d7a8" x="162" y="300.750786" style="stroke: #000000; stroke-width: 0.8"/>
      </g>
     </g>
     <g id="text_8">
      <!-- 0.500 -->
      <g transform="translate(126.371875 304.550004) scale(0.1 -0.1)">
       <defs>
        <path id="DejaVuSans-2e" d="M 684 794 
L 1344 794 
L 1344 0 
L 684 0 
L 684 794 
z
" transform="scale(0.015625)"/>
        <path id="DejaVuSans-35" d="M 691 4666 
L 3169 4666 
L 3169 4134 
L 1269 4134 
L 1269 2991 
Q 1406 3038 1543 3061 
Q 1681 3084 1819 3084 
Q 2600 3084 3056 2656 
Q 3513 2228 3513 1497 
Q 3513 744 3044 326 
Q 2575 -91 1722 -91 
Q 1428 -91 1123 -41 
Q 819 9 494 109 
L 494 744 
Q 775 591 1075 516 
Q 1375 441 1709 441 
Q 2250 441 2565 725 
Q 2881 1009 2881 1497 
Q 2881 1984 2565 2268 
Q 2250 2553 1709 2553 
Q 1456 2553 1204 2497 
Q 953 2441 691 2322 
L 691 4666 
z
" transform="scale(0.015625)"/>
       </defs>
       <use xlink:href="#DejaVuSans-30"/>
       <use xlink:href="#DejaVuSans-2e" x="63.623047"/>
       <use xlink:href="#DejaVuSans-35" x="95.410156"/>
       <use xlink:href="#DejaVuSans-30" x="159.033203"/>
       <use xlink:href="#DejaVuSans-30" x="222.65625"/>
      </g>
     </g>
    </g>
    <g id="ytick_2">
     <g id="line2d_8">
      <g>
       <use xlink:href="#m378df2d7a8" x="162" y="269.055248" style="stroke: #000000; stroke-width: 0.8"/>
      </g>
     </g>
     <g id="text_9">
      <!-- 0.525 -->
      <g transform="translate(126.371875 272.854467) scale(0.1 -0.1)">
       <use xlink:href="#DejaVuSans-30"/>
       <use xlink:href="#DejaVuSans-2e" x="63.623047"/>
       <use xlink:href="#DejaVuSans-35" x="95.410156"/>
       <use xlink:href="#DejaVuSans-32" x="159.033203"/>
       <use xlink:href="#DejaVuSans-35" x="222.65625"/>
      </g>
     </g>
    </g>
    <g id="ytick_3">
     <g id="line2d_9">
      <g>
       <use xlink:href="#m378df2d7a8" x="162" y="237.359711" style="stroke: #000000; stroke-width: 0.8"/>
      </g>
     </g>
     <g id="text_10">
      <!-- 0.550 -->
      <g transform="translate(126.371875 241.15893) scale(0.1 -0.1)">
       <use xlink:href="#DejaVuSans-30"/>
       <use xlink:href="#DejaVuSans-2e" x="63.623047"/>
       <use xlink:href="#DejaVuSans-35" x="95.410156"/>
       <use xlink:href="#DejaVuSans-35" x="159.033203"/>
       <use xlink:href="#DejaVuSans-30" x="222.65625"/>
      </g>
     </g>
    </g>
    <g id="ytick_4">
     <g id="line2d_10">
      <g>
       <use xlink:href="#m378df2d7a8" x="162" y="205.664174" style="stroke: #000000; stroke-width: 0.8"/>
      </g>
     </g>
     <g id="text_11">
      <!-- 0.575 -->
      <g transform="translate(126.371875 209.463392) scale(0.1 -0.1)">
       <defs>
        <path id="DejaVuSans-37" d="M 525 4666 
L 3525 4666 
L 3525 4397 
L 1831 0 
L 1172 0 
L 2766 4134 
L 525 4134 
L 525 4666 
z
" transform="scale(0.015625)"/>
       </defs>
       <use xlink:href="#DejaVuSans-30"/>
       <use xlink:href="#DejaVuSans-2e" x="63.623047"/>
       <use xlink:href="#DejaVuSans-35" x="95.410156"/>
       <use xlink:href="#DejaVuSans-37" x="159.033203"/>
       <use xlink:href="#DejaVuSans-35" x="222.65625"/>
      </g>
     </g>
    </g>
    <g id="ytick_5">
     <g id="line2d_11">
      <g>
       <use xlink:href="#m378df2d7a8" x="162" y="173.968636" style="stroke: #000000; stroke-width: 0.8"/>
      </g>
     </g>
     <g id="text_12">
      <!-- 0.600 -->
      <g transform="translate(126.371875 177.767855) scale(0.1 -0.1)">
       <use xlink:href="#DejaVuSans-30"/>
       <use xlink:href="#DejaVuSans-2e" x="63.623047"/>
       <use xlink:href="#DejaVuSans-36" x="95.410156"/>
       <use xlink:href="#DejaVuSans-30" x="159.033203"/>
       <use xlink:href="#DejaVuSans-30" x="222.65625"/>
      </g>
     </g>
    </g>
    <g id="ytick_6">
     <g id="line2d_12">
      <g>
       <use xlink:href="#m378df2d7a8" x="162" y="142.273099" style="stroke: #000000; stroke-width: 0.8"/>
      </g>
     </g>
     <g id="text_13">
      <!-- 0.625 -->
      <g transform="translate(126.371875 146.072318) scale(0.1 -0.1)">
       <use xlink:href="#DejaVuSans-30"/>
       <use xlink:href="#DejaVuSans-2e" x="63.623047"/>
       <use xlink:href="#DejaVuSans-36" x="95.410156"/>
       <use xlink:href="#DejaVuSans-32" x="159.033203"/>
       <use xlink:href="#DejaVuSans-35" x="222.65625"/>
      </g>
     </g>
    </g>
    <g id="ytick_7">
     <g id="line2d_13">
      <g>
       <use xlink:href="#m378df2d7a8" x="162" y="110.577561" style="stroke: #000000; stroke-width: 0.8"/>
      </g>
     </g>
     <g id="text_14">
      <!-- 0.650 -->
      <g transform="translate(126.371875 114.37678) scale(0.1 -0.1)">
       <use xlink:href="#DejaVuSans-30"/>
       <use xlink:href="#DejaVuSans-2e" x="63.623047"/>
       <use xlink:href="#DejaVuSans-36" x="95.410156"/>
       <use xlink:href="#DejaVuSans-35" x="159.033203"/>
       <use xlink:href="#DejaVuSans-30" x="222.65625"/>
      </g>
     </g>
    </g>
    <g id="ytick_8">
     <g id="line2d_14">
      <g>
       <use xlink:href="#m378df2d7a8" x="162" y="78.882024" style="stroke: #000000; stroke-width: 0.8"/>
      </g>
     </g>
     <g id="text_15">
      <!-- 0.675 -->
      <g transform="translate(126.371875 82.681243) scale(0.1 -0.1)">
       <use xlink:href="#DejaVuSans-30"/>
       <use xlink:href="#DejaVuSans-2e" x="63.623047"/>
       <use xlink:href="#DejaVuSans-36" x="95.410156"/>
       <use xlink:href="#DejaVuSans-37" x="159.033203"/>
       <use xlink:href="#DejaVuSans-35" x="222.65625"/>
      </g>
     </g>
    </g>
    <g id="ytick_9">
     <g id="line2d_15">
      <g>
       <use xlink:href="#m378df2d7a8" x="162" y="47.186487" style="stroke: #000000; stroke-width: 0.8"/>
      </g>
     </g>
     <g id="text_16">
      <!-- 0.700 -->
      <g transform="translate(126.371875 50.985705) scale(0.1 -0.1)">
       <use xlink:href="#DejaVuSans-30"/>
       <use xlink:href="#DejaVuSans-2e" x="63.623047"/>
       <use xlink:href="#DejaVuSans-37" x="95.410156"/>
       <use xlink:href="#DejaVuSans-30" x="159.033203"/>
       <use xlink:href="#DejaVuSans-30" x="222.65625"/>
      </g>
     </g>
    </g>
   </g>
   <g id="line2d_16">
    <path d="M 175.427807 55.8 
L 178.140496 56.106 
L 180.853184 56.411799 
L 183.565873 56.578855 
L 186.278561 56.910422 
L 188.991249 57.123902 
L 191.703938 57.490583 
L 194.416626 57.774644 
L 197.129315 58.171703 
L 199.842003 58.450524 
L 202.554691 58.948895 
L 205.26738 59.378323 
L 207.980068 60.029015 
L 210.692756 60.682955 
L 213.405445 61.716676 
L 216.118133 62.839038 
L 218.830822 64.062888 
L 221.54351 65.792716 
L 224.256198 68.135451 
L 226.968887 70.303927 
L 229.681575 73.547459 
L 232.394263 78.082474 
L 235.106952 82.705576 
L 237.81964 89.393625 
L 240.532329 97.005318 
L 243.245017 106.667273 
L 245.957705 116.187058 
L 248.670394 122.006856 
L 251.383082 132.197938 
L 254.095771 136.500078 
L 256.808459 143.192888 
L 259.521147 151.087961 
L 262.233836 150.650497 
L 264.946524 160.980221 
L 267.659212 166.352052 
L 270.371901 174.843256 
L 273.084589 177.916659 
L 275.797278 182.766742 
L 278.509966 189.755729 
L 281.222654 190.38181 
L 283.935343 199.569852 
L 286.648031 201.374694 
L 289.360719 208.399047 
L 292.073408 213.6908 
L 294.786096 217.135796 
L 297.498785 227.692754 
L 300.211473 230.262521 
L 302.924161 225.836425 
L 305.63685 225.367197 
L 308.349538 234.529043 
L 311.062227 235.296713 
L 313.774915 244.30717 
L 316.487603 246.013598 
L 319.200292 253.161806 
L 321.91298 250.706525 
L 324.625668 250.720404 
L 327.338357 259.059641 
L 330.051045 254.908058 
L 332.763734 259.822273 
L 335.476422 256.101303 
L 338.18911 259.784666 
L 340.901799 261.462654 
L 343.614487 263.027391 
L 346.327175 264.124413 
L 349.039864 265.801495 
L 351.752552 265.020373 
L 354.465241 267.406006 
L 357.177929 269.18654 
L 359.890617 266.527023 
L 362.603306 269.514128 
L 365.315994 264.547594 
L 368.028683 272.174702 
L 370.741371 272.005909 
L 373.454059 274.930682 
L 376.166748 273.145047 
L 378.879436 272.551384 
L 381.592124 276.007627 
L 384.304813 273.069151 
L 387.017501 275.45729 
L 389.73019 278.414104 
L 392.442878 273.874203 
L 395.155566 275.293497 
L 397.868255 271.530535 
L 400.580943 277.524719 
L 403.293632 277.337512 
L 406.00632 277.661913 
L 408.719008 280.837937 
L 411.431697 279.2383 
L 414.144385 279.928135 
L 416.857073 281.894542 
L 419.569762 283.233885 
L 422.28245 285.198755 
L 424.995139 284.615093 
L 427.707827 287.348842 
L 430.420515 289.248459 
L 433.133204 285.786649 
L 435.845892 289.775987 
L 438.55858 286.667395 
L 441.271269 288.176187 
L 443.983957 288.603083 
" clip-path="url(#pb0008d5d45)" style="fill: none; stroke: #1f77b4; stroke-width: 1.5; stroke-linecap: square"/>
   </g>
   <g id="line2d_17">
    <path d="M 175.427807 56.734525 
L 178.140496 56.70732 
L 180.853184 57.223904 
L 183.565873 57.834191 
L 186.278561 58.577932 
L 188.991249 59.115825 
L 191.703938 59.967779 
L 194.416626 60.881095 
L 197.129315 61.876931 
L 199.842003 62.932843 
L 202.554691 64.001753 
L 205.26738 65.425909 
L 207.980068 67.115761 
L 210.692756 68.992192 
L 213.405445 71.191826 
L 216.118133 73.921873 
L 218.830822 77.336416 
L 221.54351 82.022693 
L 224.256198 87.835085 
L 226.968887 95.296296 
L 229.681575 104.292824 
L 232.394263 115.388783 
L 235.106952 128.977656 
L 237.81964 143.989551 
L 240.532329 159.93237 
L 243.245017 181.091575 
L 245.957705 191.556994 
L 248.670394 195.113982 
L 251.383082 223.496132 
L 254.095771 208.430055 
L 256.808459 207.760446 
L 259.521147 205.730915 
L 262.233836 220.326657 
L 264.946524 218.782575 
L 267.659212 223.234365 
L 270.371901 252.949082 
L 273.084589 254.731732 
L 275.797278 251.022248 
L 278.509966 272.300019 
L 281.222654 278.799854 
L 283.935343 240.952428 
L 286.648031 284.845827 
L 289.360719 276.889796 
L 292.073408 285.685539 
L 294.786096 286.666715 
L 297.498785 283.748957 
L 300.211473 271.432347 
L 302.924161 268.962481 
L 305.63685 268.854116 
L 308.349538 275.855723 
L 311.062227 260.578206 
L 313.774915 270.537999 
L 316.487603 275.494885 
L 319.200292 280.745505 
L 321.91298 281.6861 
L 324.625668 280.867094 
L 327.338357 283.080784 
L 330.051045 284.149996 
L 332.763734 281.926936 
L 335.476422 285.01986 
L 338.18911 284.409799 
L 340.901799 283.212424 
L 343.614487 283.595554 
L 346.327175 283.364089 
L 349.039864 285.240066 
L 351.752552 286.058996 
L 354.465241 288.354074 
L 357.177929 286.920397 
L 359.890617 286.767976 
L 362.603306 287.305114 
L 365.315994 290.855225 
L 368.028683 289.359658 
L 370.741371 295.354169 
L 373.454059 291.675365 
L 376.166748 290.377333 
L 378.879436 292.97302 
L 381.592124 296.213 
L 384.304813 300.114578 
L 387.017501 291.902447 
L 389.73019 293.540838 
L 392.442878 293.43595 
L 395.155566 300.67159 
L 397.868255 307.8 
L 400.580943 292.258146 
L 403.293632 297.783379 
L 406.00632 297.574283 
L 408.719008 302.164097 
L 411.431697 306.297556 
L 414.144385 299.404012 
L 416.857073 296.720968 
L 419.569762 301.267218 
L 422.28245 304.183955 
L 424.995139 299.93858 
L 427.707827 299.294816 
L 430.420515 300.006818 
L 433.133204 300.689727 
L 435.845892 303.39442 
L 438.55858 302.113731 
L 441.271269 300.688744 
L 443.983957 300.486751 
" clip-path="url(#pb0008d5d45)" style="fill: none; stroke: #ff7f0e; stroke-width: 1.5; stroke-linecap: square"/>
   </g>
   <g id="patch_3">
    <path d="M 162 320.4 
L 162 43.2 
" style="fill: none; stroke: #000000; stroke-width: 0.8; stroke-linejoin: miter; stroke-linecap: square"/>
   </g>
   <g id="patch_4">
    <path d="M 457.411765 320.4 
L 457.411765 43.2 
" style="fill: none; stroke: #000000; stroke-width: 0.8; stroke-linejoin: miter; stroke-linecap: square"/>
   </g>
   <g id="patch_5">
    <path d="M 162 320.4 
L 457.411765 320.4 
" style="fill: none; stroke: #000000; stroke-width: 0.8; stroke-linejoin: miter; stroke-linecap: square"/>
   </g>
   <g id="patch_6">
    <path d="M 162 43.2 
L 457.411765 43.2 
" style="fill: none; stroke: #000000; stroke-width: 0.8; stroke-linejoin: miter; stroke-linecap: square"/>
   </g>
   <g id="text_17">
    <!-- Loss -->
    <g transform="translate(296.545257 37.2) scale(0.12 -0.12)">
     <defs>
      <path id="DejaVuSans-4c" d="M 628 4666 
L 1259 4666 
L 1259 531 
L 3531 531 
L 3531 0 
L 628 0 
L 628 4666 
z
" transform="scale(0.015625)"/>
      <path id="DejaVuSans-73" d="M 2834 3397 
L 2834 2853 
Q 2591 2978 2328 3040 
Q 2066 3103 1784 3103 
Q 1356 3103 1142 2972 
Q 928 2841 928 2578 
Q 928 2378 1081 2264 
Q 1234 2150 1697 2047 
L 1894 2003 
Q 2506 1872 2764 1633 
Q 3022 1394 3022 966 
Q 3022 478 2636 193 
Q 2250 -91 1575 -91 
Q 1294 -91 989 -36 
Q 684 19 347 128 
L 347 722 
Q 666 556 975 473 
Q 1284 391 1588 391 
Q 1994 391 2212 530 
Q 2431 669 2431 922 
Q 2431 1156 2273 1281 
Q 2116 1406 1581 1522 
L 1381 1569 
Q 847 1681 609 1914 
Q 372 2147 372 2553 
Q 372 3047 722 3315 
Q 1072 3584 1716 3584 
Q 2034 3584 2315 3537 
Q 2597 3491 2834 3397 
z
" transform="scale(0.015625)"/>
     </defs>
     <use xlink:href="#DejaVuSans-4c"/>
     <use xlink:href="#DejaVuSans-6f" x="53.962891"/>
     <use xlink:href="#DejaVuSans-73" x="115.144531"/>
     <use xlink:href="#DejaVuSans-73" x="167.244141"/>
    </g>
   </g>
   <g id="legend_1">
    <g id="patch_7">
     <path d="M 370.82114 81.1125 
L 450.411765 81.1125 
Q 452.411765 81.1125 452.411765 79.1125 
L 452.411765 50.2 
Q 452.411765 48.2 450.411765 48.2 
L 370.82114 48.2 
Q 368.82114 48.2 368.82114 50.2 
L 368.82114 79.1125 
Q 368.82114 81.1125 370.82114 81.1125 
z
" style="fill: #ffffff; opacity: 0.8; stroke: #cccccc; stroke-linejoin: miter"/>
    </g>
    <g id="line2d_18">
     <path d="M 372.82114 56.298437 
L 382.82114 56.298437 
L 392.82114 56.298437 
" style="fill: none; stroke: #1f77b4; stroke-width: 1.5; stroke-linecap: square"/>
    </g>
    <g id="text_18">
     <!-- train_loss -->
     <g transform="translate(400.82114 59.798437) scale(0.1 -0.1)">
      <defs>
       <path id="DejaVuSans-74" d="M 1172 4494 
L 1172 3500 
L 2356 3500 
L 2356 3053 
L 1172 3053 
L 1172 1153 
Q 1172 725 1289 603 
Q 1406 481 1766 481 
L 2356 481 
L 2356 0 
L 1766 0 
Q 1100 0 847 248 
Q 594 497 594 1153 
L 594 3053 
L 172 3053 
L 172 3500 
L 594 3500 
L 594 4494 
L 1172 4494 
z
" transform="scale(0.015625)"/>
       <path id="DejaVuSans-72" d="M 2631 2963 
Q 2534 3019 2420 3045 
Q 2306 3072 2169 3072 
Q 1681 3072 1420 2755 
Q 1159 2438 1159 1844 
L 1159 0 
L 581 0 
L 581 3500 
L 1159 3500 
L 1159 2956 
Q 1341 3275 1631 3429 
Q 1922 3584 2338 3584 
Q 2397 3584 2469 3576 
Q 2541 3569 2628 3553 
L 2631 2963 
z
" transform="scale(0.015625)"/>
       <path id="DejaVuSans-61" d="M 2194 1759 
Q 1497 1759 1228 1600 
Q 959 1441 959 1056 
Q 959 750 1161 570 
Q 1363 391 1709 391 
Q 2188 391 2477 730 
Q 2766 1069 2766 1631 
L 2766 1759 
L 2194 1759 
z
M 3341 1997 
L 3341 0 
L 2766 0 
L 2766 531 
Q 2569 213 2275 61 
Q 1981 -91 1556 -91 
Q 1019 -91 701 211 
Q 384 513 384 1019 
Q 384 1609 779 1909 
Q 1175 2209 1959 2209 
L 2766 2209 
L 2766 2266 
Q 2766 2663 2505 2880 
Q 2244 3097 1772 3097 
Q 1472 3097 1187 3025 
Q 903 2953 641 2809 
L 641 3341 
Q 956 3463 1253 3523 
Q 1550 3584 1831 3584 
Q 2591 3584 2966 3190 
Q 3341 2797 3341 1997 
z
" transform="scale(0.015625)"/>
       <path id="DejaVuSans-69" d="M 603 3500 
L 1178 3500 
L 1178 0 
L 603 0 
L 603 3500 
z
M 603 4863 
L 1178 4863 
L 1178 4134 
L 603 4134 
L 603 4863 
z
" transform="scale(0.015625)"/>
       <path id="DejaVuSans-6e" d="M 3513 2113 
L 3513 0 
L 2938 0 
L 2938 2094 
Q 2938 2591 2744 2837 
Q 2550 3084 2163 3084 
Q 1697 3084 1428 2787 
Q 1159 2491 1159 1978 
L 1159 0 
L 581 0 
L 581 3500 
L 1159 3500 
L 1159 2956 
Q 1366 3272 1645 3428 
Q 1925 3584 2291 3584 
Q 2894 3584 3203 3211 
Q 3513 2838 3513 2113 
z
" transform="scale(0.015625)"/>
       <path id="DejaVuSans-5f" d="M 3263 -1063 
L 3263 -1509 
L -63 -1509 
L -63 -1063 
L 3263 -1063 
z
" transform="scale(0.015625)"/>
       <path id="DejaVuSans-6c" d="M 603 4863 
L 1178 4863 
L 1178 0 
L 603 0 
L 603 4863 
z
" transform="scale(0.015625)"/>
      </defs>
      <use xlink:href="#DejaVuSans-74"/>
      <use xlink:href="#DejaVuSans-72" x="39.208984"/>
      <use xlink:href="#DejaVuSans-61" x="80.322266"/>
      <use xlink:href="#DejaVuSans-69" x="141.601562"/>
      <use xlink:href="#DejaVuSans-6e" x="169.384766"/>
      <use xlink:href="#DejaVuSans-5f" x="232.763672"/>
      <use xlink:href="#DejaVuSans-6c" x="282.763672"/>
      <use xlink:href="#DejaVuSans-6f" x="310.546875"/>
      <use xlink:href="#DejaVuSans-73" x="371.728516"/>
      <use xlink:href="#DejaVuSans-73" x="423.828125"/>
     </g>
    </g>
    <g id="line2d_19">
     <path d="M 372.82114 71.254687 
L 382.82114 71.254687 
L 392.82114 71.254687 
" style="fill: none; stroke: #ff7f0e; stroke-width: 1.5; stroke-linecap: square"/>
    </g>
    <g id="text_19">
     <!-- val_loss -->
     <g transform="translate(400.82114 74.754687) scale(0.1 -0.1)">
      <defs>
       <path id="DejaVuSans-76" d="M 191 3500 
L 800 3500 
L 1894 563 
L 2988 3500 
L 3597 3500 
L 2284 0 
L 1503 0 
L 191 3500 
z
" transform="scale(0.015625)"/>
      </defs>
      <use xlink:href="#DejaVuSans-76"/>
      <use xlink:href="#DejaVuSans-61" x="59.179688"/>
      <use xlink:href="#DejaVuSans-6c" x="120.458984"/>
      <use xlink:href="#DejaVuSans-5f" x="148.242188"/>
      <use xlink:href="#DejaVuSans-6c" x="198.242188"/>
      <use xlink:href="#DejaVuSans-6f" x="226.025391"/>
      <use xlink:href="#DejaVuSans-73" x="287.207031"/>
      <use xlink:href="#DejaVuSans-73" x="339.306641"/>
     </g>
    </g>
   </g>
  </g>
  <g id="axes_2">
   <g id="patch_8">
    <path d="M 516.494118 320.4 
L 811.905882 320.4 
L 811.905882 43.2 
L 516.494118 43.2 
z
" style="fill: #ffffff"/>
   </g>
   <g id="matplotlib.axis_3">
    <g id="xtick_7">
     <g id="line2d_20">
      <g>
       <use xlink:href="#mf1bdaf46e0" x="527.209237" y="320.4" style="stroke: #000000; stroke-width: 0.8"/>
      </g>
     </g>
     <g id="text_20">
      <!-- 0 -->
      <g transform="translate(524.027987 334.998438) scale(0.1 -0.1)">
       <use xlink:href="#DejaVuSans-30"/>
      </g>
     </g>
    </g>
    <g id="xtick_8">
     <g id="line2d_21">
      <g>
       <use xlink:href="#mf1bdaf46e0" x="581.463004" y="320.4" style="stroke: #000000; stroke-width: 0.8"/>
      </g>
     </g>
     <g id="text_21">
      <!-- 20 -->
      <g transform="translate(575.100504 334.998438) scale(0.1 -0.1)">
       <use xlink:href="#DejaVuSans-32"/>
       <use xlink:href="#DejaVuSans-30" x="63.623047"/>
      </g>
     </g>
    </g>
    <g id="xtick_9">
     <g id="line2d_22">
      <g>
       <use xlink:href="#mf1bdaf46e0" x="635.716772" y="320.4" style="stroke: #000000; stroke-width: 0.8"/>
      </g>
     </g>
     <g id="text_22">
      <!-- 40 -->
      <g transform="translate(629.354272 334.998438) scale(0.1 -0.1)">
       <use xlink:href="#DejaVuSans-34"/>
       <use xlink:href="#DejaVuSans-30" x="63.623047"/>
      </g>
     </g>
    </g>
    <g id="xtick_10">
     <g id="line2d_23">
      <g>
       <use xlink:href="#mf1bdaf46e0" x="689.97054" y="320.4" style="stroke: #000000; stroke-width: 0.8"/>
      </g>
     </g>
     <g id="text_23">
      <!-- 60 -->
      <g transform="translate(683.60804 334.998438) scale(0.1 -0.1)">
       <use xlink:href="#DejaVuSans-36"/>
       <use xlink:href="#DejaVuSans-30" x="63.623047"/>
      </g>
     </g>
    </g>
    <g id="xtick_11">
     <g id="line2d_24">
      <g>
       <use xlink:href="#mf1bdaf46e0" x="744.224307" y="320.4" style="stroke: #000000; stroke-width: 0.8"/>
      </g>
     </g>
     <g id="text_24">
      <!-- 80 -->
      <g transform="translate(737.861807 334.998438) scale(0.1 -0.1)">
       <use xlink:href="#DejaVuSans-38"/>
       <use xlink:href="#DejaVuSans-30" x="63.623047"/>
      </g>
     </g>
    </g>
    <g id="xtick_12">
     <g id="line2d_25">
      <g>
       <use xlink:href="#mf1bdaf46e0" x="798.478075" y="320.4" style="stroke: #000000; stroke-width: 0.8"/>
      </g>
     </g>
     <g id="text_25">
      <!-- 100 -->
      <g transform="translate(788.934325 334.998438) scale(0.1 -0.1)">
       <use xlink:href="#DejaVuSans-31"/>
       <use xlink:href="#DejaVuSans-30" x="63.623047"/>
       <use xlink:href="#DejaVuSans-30" x="127.246094"/>
      </g>
     </g>
    </g>
    <g id="text_26">
     <!-- epoch -->
     <g transform="translate(648.971875 348.676562) scale(0.1 -0.1)">
      <use xlink:href="#DejaVuSans-65"/>
      <use xlink:href="#DejaVuSans-70" x="61.523438"/>
      <use xlink:href="#DejaVuSans-6f" x="125"/>
      <use xlink:href="#DejaVuSans-63" x="186.181641"/>
      <use xlink:href="#DejaVuSans-68" x="241.162109"/>
     </g>
    </g>
   </g>
   <g id="matplotlib.axis_4">
    <g id="ytick_10">
     <g id="line2d_26">
      <g>
       <use xlink:href="#m378df2d7a8" x="516.494118" y="305.354627" style="stroke: #000000; stroke-width: 0.8"/>
      </g>
     </g>
     <g id="text_27">
      <!-- 0.40 -->
      <g transform="translate(487.228493 309.153846) scale(0.1 -0.1)">
       <use xlink:href="#DejaVuSans-30"/>
       <use xlink:href="#DejaVuSans-2e" x="63.623047"/>
       <use xlink:href="#DejaVuSans-34" x="95.410156"/>
       <use xlink:href="#DejaVuSans-30" x="159.033203"/>
      </g>
     </g>
    </g>
    <g id="ytick_11">
     <g id="line2d_27">
      <g>
       <use xlink:href="#m378df2d7a8" x="516.494118" y="273.453631" style="stroke: #000000; stroke-width: 0.8"/>
      </g>
     </g>
     <g id="text_28">
      <!-- 0.45 -->
      <g transform="translate(487.228493 277.25285) scale(0.1 -0.1)">
       <use xlink:href="#DejaVuSans-30"/>
       <use xlink:href="#DejaVuSans-2e" x="63.623047"/>
       <use xlink:href="#DejaVuSans-34" x="95.410156"/>
       <use xlink:href="#DejaVuSans-35" x="159.033203"/>
      </g>
     </g>
    </g>
    <g id="ytick_12">
     <g id="line2d_28">
      <g>
       <use xlink:href="#m378df2d7a8" x="516.494118" y="241.552635" style="stroke: #000000; stroke-width: 0.8"/>
      </g>
     </g>
     <g id="text_29">
      <!-- 0.50 -->
      <g transform="translate(487.228493 245.351854) scale(0.1 -0.1)">
       <use xlink:href="#DejaVuSans-30"/>
       <use xlink:href="#DejaVuSans-2e" x="63.623047"/>
       <use xlink:href="#DejaVuSans-35" x="95.410156"/>
       <use xlink:href="#DejaVuSans-30" x="159.033203"/>
      </g>
     </g>
    </g>
    <g id="ytick_13">
     <g id="line2d_29">
      <g>
       <use xlink:href="#m378df2d7a8" x="516.494118" y="209.651639" style="stroke: #000000; stroke-width: 0.8"/>
      </g>
     </g>
     <g id="text_30">
      <!-- 0.55 -->
      <g transform="translate(487.228493 213.450858) scale(0.1 -0.1)">
       <use xlink:href="#DejaVuSans-30"/>
       <use xlink:href="#DejaVuSans-2e" x="63.623047"/>
       <use xlink:href="#DejaVuSans-35" x="95.410156"/>
       <use xlink:href="#DejaVuSans-35" x="159.033203"/>
      </g>
     </g>
    </g>
    <g id="ytick_14">
     <g id="line2d_30">
      <g>
       <use xlink:href="#m378df2d7a8" x="516.494118" y="177.750643" style="stroke: #000000; stroke-width: 0.8"/>
      </g>
     </g>
     <g id="text_31">
      <!-- 0.60 -->
      <g transform="translate(487.228493 181.549862) scale(0.1 -0.1)">
       <use xlink:href="#DejaVuSans-30"/>
       <use xlink:href="#DejaVuSans-2e" x="63.623047"/>
       <use xlink:href="#DejaVuSans-36" x="95.410156"/>
       <use xlink:href="#DejaVuSans-30" x="159.033203"/>
      </g>
     </g>
    </g>
    <g id="ytick_15">
     <g id="line2d_31">
      <g>
       <use xlink:href="#m378df2d7a8" x="516.494118" y="145.849647" style="stroke: #000000; stroke-width: 0.8"/>
      </g>
     </g>
     <g id="text_32">
      <!-- 0.65 -->
      <g transform="translate(487.228493 149.648866) scale(0.1 -0.1)">
       <use xlink:href="#DejaVuSans-30"/>
       <use xlink:href="#DejaVuSans-2e" x="63.623047"/>
       <use xlink:href="#DejaVuSans-36" x="95.410156"/>
       <use xlink:href="#DejaVuSans-35" x="159.033203"/>
      </g>
     </g>
    </g>
    <g id="ytick_16">
     <g id="line2d_32">
      <g>
       <use xlink:href="#m378df2d7a8" x="516.494118" y="113.948651" style="stroke: #000000; stroke-width: 0.8"/>
      </g>
     </g>
     <g id="text_33">
      <!-- 0.70 -->
      <g transform="translate(487.228493 117.74787) scale(0.1 -0.1)">
       <use xlink:href="#DejaVuSans-30"/>
       <use xlink:href="#DejaVuSans-2e" x="63.623047"/>
       <use xlink:href="#DejaVuSans-37" x="95.410156"/>
       <use xlink:href="#DejaVuSans-30" x="159.033203"/>
      </g>
     </g>
    </g>
    <g id="ytick_17">
     <g id="line2d_33">
      <g>
       <use xlink:href="#m378df2d7a8" x="516.494118" y="82.047655" style="stroke: #000000; stroke-width: 0.8"/>
      </g>
     </g>
     <g id="text_34">
      <!-- 0.75 -->
      <g transform="translate(487.228493 85.846874) scale(0.1 -0.1)">
       <use xlink:href="#DejaVuSans-30"/>
       <use xlink:href="#DejaVuSans-2e" x="63.623047"/>
       <use xlink:href="#DejaVuSans-37" x="95.410156"/>
       <use xlink:href="#DejaVuSans-35" x="159.033203"/>
      </g>
     </g>
    </g>
    <g id="ytick_18">
     <g id="line2d_34">
      <g>
       <use xlink:href="#m378df2d7a8" x="516.494118" y="50.146659" style="stroke: #000000; stroke-width: 0.8"/>
      </g>
     </g>
     <g id="text_35">
      <!-- 0.80 -->
      <g transform="translate(487.228493 53.945878) scale(0.1 -0.1)">
       <use xlink:href="#DejaVuSans-30"/>
       <use xlink:href="#DejaVuSans-2e" x="63.623047"/>
       <use xlink:href="#DejaVuSans-38" x="95.410156"/>
       <use xlink:href="#DejaVuSans-30" x="159.033203"/>
      </g>
     </g>
    </g>
   </g>
   <g id="line2d_35">
    <path d="M 529.921925 307.8 
L 532.634614 293.794685 
L 535.347302 222.878882 
L 538.05999 195.979784 
L 540.772679 186.4206 
L 543.485367 195.535171 
L 546.198055 190.199812 
L 548.910744 200.203609 
L 551.623432 204.872048 
L 554.336121 206.205887 
L 557.048809 201.759755 
L 559.761497 199.536689 
L 562.474186 201.315142 
L 565.186874 199.314383 
L 567.899562 196.424397 
L 570.612251 196.20209 
L 573.324939 191.533652 
L 576.037628 189.532893 
L 578.750316 190.422119 
L 581.463004 187.08752 
L 584.175693 184.642148 
L 586.888381 180.640629 
L 589.60107 178.417563 
L 592.313758 165.968394 
L 595.026446 156.631517 
L 597.739135 154.630758 
L 600.451823 151.963078 
L 603.164511 141.292362 
L 605.8772 133.956244 
L 608.589888 132.400098 
L 611.302577 124.619368 
L 614.015265 119.950929 
L 616.727953 114.170958 
L 619.440642 110.169439 
L 622.15333 105.278694 
L 624.866018 102.611015 
L 627.578707 109.280213 
L 630.291395 100.165642 
L 633.004084 96.831043 
L 635.716772 105.723307 
L 638.42946 95.941817 
L 641.142149 95.274897 
L 643.854837 102.388708 
L 646.567526 94.830284 
L 649.280214 99.721029 
L 651.992902 95.941817 
L 654.705591 91.717992 
L 657.418279 109.724826 
L 660.130967 90.828765 
L 662.843656 97.497963 
L 665.556344 104.834081 
L 668.269033 87.27186 
L 670.981721 93.941058 
L 673.694409 90.161846 
L 676.407098 89.939539 
L 679.119786 87.494167 
L 681.832474 88.828006 
L 684.545163 91.495685 
L 687.257851 87.049553 
L 689.97054 85.493407 
L 692.683228 89.050313 
L 695.395916 87.27186 
L 698.108605 87.716473 
L 700.821293 86.827247 
L 703.533982 86.827247 
L 706.24667 85.93802 
L 708.959358 84.159568 
L 711.672047 87.716473 
L 714.384735 86.160327 
L 717.097423 82.825728 
L 719.810112 87.27186 
L 722.5228 84.159568 
L 725.235489 83.048035 
L 727.948177 86.827247 
L 730.660865 82.381115 
L 733.373554 83.937261 
L 736.086242 80.602662 
L 738.79893 83.270341 
L 741.511619 84.159568 
L 744.224307 80.602662 
L 746.936996 84.826487 
L 749.649684 79.268823 
L 752.362372 86.827247 
L 755.075061 81.491889 
L 757.787749 81.714195 
L 760.500438 84.159568 
L 763.213126 81.269582 
L 765.925814 84.381874 
L 768.638503 79.935742 
L 771.351191 82.381115 
L 774.063879 83.048035 
L 776.776568 79.713436 
L 779.489256 80.824969 
L 782.201945 79.713436 
L 784.914633 79.935742 
L 787.627321 78.601903 
L 790.34001 80.380356 
L 793.052698 80.824969 
L 795.765386 80.380356 
L 798.478075 79.491129 
" clip-path="url(#pf9b640189a)" style="fill: none; stroke: #1f77b4; stroke-width: 1.5; stroke-linecap: square"/>
   </g>
   <g id="line2d_36">
    <path d="M 529.921925 273.857441 
L 532.634614 197.133527 
L 535.347302 148.676318 
L 538.05999 144.638217 
L 540.772679 172.904922 
L 543.485367 152.714418 
L 546.198055 164.828721 
L 548.910744 176.943023 
L 551.623432 189.057325 
L 554.336121 180.981124 
L 557.048809 168.866822 
L 559.761497 168.866822 
L 562.474186 168.866822 
L 565.186874 164.828721 
L 567.899562 156.752519 
L 570.612251 152.714418 
L 573.324939 156.752519 
L 576.037628 156.752519 
L 578.750316 156.752519 
L 581.463004 164.828721 
L 584.175693 152.714418 
L 586.888381 148.676318 
L 589.60107 140.600116 
L 592.313758 104.257209 
L 595.026446 100.219108 
L 597.739135 108.29531 
L 600.451823 112.333411 
L 603.164511 104.257209 
L 605.8772 104.257209 
L 608.589888 104.257209 
L 611.302577 96.181008 
L 614.015265 100.219108 
L 616.727953 100.219108 
L 619.440642 96.181008 
L 622.15333 96.181008 
L 624.866018 71.952403 
L 627.578707 67.914302 
L 630.291395 84.066705 
L 633.004084 63.876202 
L 635.716772 67.914302 
L 638.42946 88.104806 
L 641.142149 67.914302 
L 643.854837 59.838101 
L 646.567526 63.876202 
L 649.280214 71.952403 
L 651.992902 55.8 
L 654.705591 104.257209 
L 657.418279 71.952403 
L 660.130967 75.990504 
L 662.843656 108.29531 
L 665.556344 67.914302 
L 668.269033 88.104806 
L 670.981721 80.028605 
L 673.694409 80.028605 
L 676.407098 75.990504 
L 679.119786 67.914302 
L 681.832474 84.066705 
L 684.545163 84.066705 
L 687.257851 71.952403 
L 689.97054 84.066705 
L 692.683228 80.028605 
L 695.395916 75.990504 
L 698.108605 75.990504 
L 700.821293 75.990504 
L 703.533982 71.952403 
L 706.24667 71.952403 
L 708.959358 84.066705 
L 711.672047 75.990504 
L 714.384735 67.914302 
L 717.097423 71.952403 
L 719.810112 80.028605 
L 722.5228 63.876202 
L 725.235489 80.028605 
L 727.948177 75.990504 
L 730.660865 75.990504 
L 733.373554 75.990504 
L 736.086242 75.990504 
L 738.79893 80.028605 
L 741.511619 63.876202 
L 744.224307 67.914302 
L 746.936996 55.8 
L 749.649684 71.952403 
L 752.362372 80.028605 
L 755.075061 55.8 
L 757.787749 67.914302 
L 760.500438 55.8 
L 763.213126 71.952403 
L 765.925814 63.876202 
L 768.638503 67.914302 
L 771.351191 67.914302 
L 774.063879 71.952403 
L 776.776568 67.914302 
L 779.489256 71.952403 
L 782.201945 71.952403 
L 784.914633 71.952403 
L 787.627321 63.876202 
L 790.34001 63.876202 
L 793.052698 67.914302 
L 795.765386 63.876202 
L 798.478075 63.876202 
" clip-path="url(#pf9b640189a)" style="fill: none; stroke: #ff7f0e; stroke-width: 1.5; stroke-linecap: square"/>
   </g>
   <g id="patch_9">
    <path d="M 516.494118 320.4 
L 516.494118 43.2 
" style="fill: none; stroke: #000000; stroke-width: 0.8; stroke-linejoin: miter; stroke-linecap: square"/>
   </g>
   <g id="patch_10">
    <path d="M 811.905882 320.4 
L 811.905882 43.2 
" style="fill: none; stroke: #000000; stroke-width: 0.8; stroke-linejoin: miter; stroke-linecap: square"/>
   </g>
   <g id="patch_11">
    <path d="M 516.494118 320.4 
L 811.905882 320.4 
" style="fill: none; stroke: #000000; stroke-width: 0.8; stroke-linejoin: miter; stroke-linecap: square"/>
   </g>
   <g id="patch_12">
    <path d="M 516.494118 43.2 
L 811.905882 43.2 
" style="fill: none; stroke: #000000; stroke-width: 0.8; stroke-linejoin: miter; stroke-linecap: square"/>
   </g>
   <g id="text_36">
    <!-- Accuracy -->
    <g transform="translate(636.80625 37.2) scale(0.12 -0.12)">
     <defs>
      <path id="DejaVuSans-41" d="M 2188 4044 
L 1331 1722 
L 3047 1722 
L 2188 4044 
z
M 1831 4666 
L 2547 4666 
L 4325 0 
L 3669 0 
L 3244 1197 
L 1141 1197 
L 716 0 
L 50 0 
L 1831 4666 
z
" transform="scale(0.015625)"/>
      <path id="DejaVuSans-75" d="M 544 1381 
L 544 3500 
L 1119 3500 
L 1119 1403 
Q 1119 906 1312 657 
Q 1506 409 1894 409 
Q 2359 409 2629 706 
Q 2900 1003 2900 1516 
L 2900 3500 
L 3475 3500 
L 3475 0 
L 2900 0 
L 2900 538 
Q 2691 219 2414 64 
Q 2138 -91 1772 -91 
Q 1169 -91 856 284 
Q 544 659 544 1381 
z
M 1991 3584 
L 1991 3584 
z
" transform="scale(0.015625)"/>
      <path id="DejaVuSans-79" d="M 2059 -325 
Q 1816 -950 1584 -1140 
Q 1353 -1331 966 -1331 
L 506 -1331 
L 506 -850 
L 844 -850 
Q 1081 -850 1212 -737 
Q 1344 -625 1503 -206 
L 1606 56 
L 191 3500 
L 800 3500 
L 1894 763 
L 2988 3500 
L 3597 3500 
L 2059 -325 
z
" transform="scale(0.015625)"/>
     </defs>
     <use xlink:href="#DejaVuSans-41"/>
     <use xlink:href="#DejaVuSans-63" x="66.658203"/>
     <use xlink:href="#DejaVuSans-63" x="121.638672"/>
     <use xlink:href="#DejaVuSans-75" x="176.619141"/>
     <use xlink:href="#DejaVuSans-72" x="239.998047"/>
     <use xlink:href="#DejaVuSans-61" x="281.111328"/>
     <use xlink:href="#DejaVuSans-63" x="342.390625"/>
     <use xlink:href="#DejaVuSans-79" x="397.371094"/>
    </g>
   </g>
   <g id="legend_2">
    <g id="patch_13">
     <path d="M 523.494118 81.1125 
L 600.894118 81.1125 
Q 602.894118 81.1125 602.894118 79.1125 
L 602.894118 50.2 
Q 602.894118 48.2 600.894118 48.2 
L 523.494118 48.2 
Q 521.494118 48.2 521.494118 50.2 
L 521.494118 79.1125 
Q 521.494118 81.1125 523.494118 81.1125 
z
" style="fill: #ffffff; opacity: 0.8; stroke: #cccccc; stroke-linejoin: miter"/>
    </g>
    <g id="line2d_37">
     <path d="M 525.494118 56.298437 
L 535.494118 56.298437 
L 545.494118 56.298437 
" style="fill: none; stroke: #1f77b4; stroke-width: 1.5; stroke-linecap: square"/>
    </g>
    <g id="text_37">
     <!-- train_acc -->
     <g transform="translate(553.494118 59.798437) scale(0.1 -0.1)">
      <use xlink:href="#DejaVuSans-74"/>
      <use xlink:href="#DejaVuSans-72" x="39.208984"/>
      <use xlink:href="#DejaVuSans-61" x="80.322266"/>
      <use xlink:href="#DejaVuSans-69" x="141.601562"/>
      <use xlink:href="#DejaVuSans-6e" x="169.384766"/>
      <use xlink:href="#DejaVuSans-5f" x="232.763672"/>
      <use xlink:href="#DejaVuSans-61" x="282.763672"/>
      <use xlink:href="#DejaVuSans-63" x="344.042969"/>
      <use xlink:href="#DejaVuSans-63" x="399.023438"/>
     </g>
    </g>
    <g id="line2d_38">
     <path d="M 525.494118 71.254687 
L 535.494118 71.254687 
L 545.494118 71.254687 
" style="fill: none; stroke: #ff7f0e; stroke-width: 1.5; stroke-linecap: square"/>
    </g>
    <g id="text_38">
     <!-- val_acc -->
     <g transform="translate(553.494118 74.754687) scale(0.1 -0.1)">
      <use xlink:href="#DejaVuSans-76"/>
      <use xlink:href="#DejaVuSans-61" x="59.179688"/>
      <use xlink:href="#DejaVuSans-6c" x="120.458984"/>
      <use xlink:href="#DejaVuSans-5f" x="148.242188"/>
      <use xlink:href="#DejaVuSans-61" x="198.242188"/>
      <use xlink:href="#DejaVuSans-63" x="259.521484"/>
      <use xlink:href="#DejaVuSans-63" x="314.501953"/>
     </g>
    </g>
   </g>
  </g>
  <g id="axes_3">
   <g id="patch_14">
    <path d="M 870.988235 320.4 
L 1166.4 320.4 
L 1166.4 43.2 
L 870.988235 43.2 
z
" style="fill: #ffffff"/>
   </g>
   <g id="matplotlib.axis_5">
    <g id="xtick_13">
     <g id="line2d_39">
      <g>
       <use xlink:href="#mf1bdaf46e0" x="881.703354" y="320.4" style="stroke: #000000; stroke-width: 0.8"/>
      </g>
     </g>
     <g id="text_39">
      <!-- 0 -->
      <g transform="translate(878.522104 334.998438) scale(0.1 -0.1)">
       <use xlink:href="#DejaVuSans-30"/>
      </g>
     </g>
    </g>
    <g id="xtick_14">
     <g id="line2d_40">
      <g>
       <use xlink:href="#mf1bdaf46e0" x="935.957122" y="320.4" style="stroke: #000000; stroke-width: 0.8"/>
      </g>
     </g>
     <g id="text_40">
      <!-- 20 -->
      <g transform="translate(929.594622 334.998438) scale(0.1 -0.1)">
       <use xlink:href="#DejaVuSans-32"/>
       <use xlink:href="#DejaVuSans-30" x="63.623047"/>
      </g>
     </g>
    </g>
    <g id="xtick_15">
     <g id="line2d_41">
      <g>
       <use xlink:href="#mf1bdaf46e0" x="990.21089" y="320.4" style="stroke: #000000; stroke-width: 0.8"/>
      </g>
     </g>
     <g id="text_41">
      <!-- 40 -->
      <g transform="translate(983.84839 334.998438) scale(0.1 -0.1)">
       <use xlink:href="#DejaVuSans-34"/>
       <use xlink:href="#DejaVuSans-30" x="63.623047"/>
      </g>
     </g>
    </g>
    <g id="xtick_16">
     <g id="line2d_42">
      <g>
       <use xlink:href="#mf1bdaf46e0" x="1044.464657" y="320.4" style="stroke: #000000; stroke-width: 0.8"/>
      </g>
     </g>
     <g id="text_42">
      <!-- 60 -->
      <g transform="translate(1038.102157 334.998438) scale(0.1 -0.1)">
       <use xlink:href="#DejaVuSans-36"/>
       <use xlink:href="#DejaVuSans-30" x="63.623047"/>
      </g>
     </g>
    </g>
    <g id="xtick_17">
     <g id="line2d_43">
      <g>
       <use xlink:href="#mf1bdaf46e0" x="1098.718425" y="320.4" style="stroke: #000000; stroke-width: 0.8"/>
      </g>
     </g>
     <g id="text_43">
      <!-- 80 -->
      <g transform="translate(1092.355925 334.998438) scale(0.1 -0.1)">
       <use xlink:href="#DejaVuSans-38"/>
       <use xlink:href="#DejaVuSans-30" x="63.623047"/>
      </g>
     </g>
    </g>
    <g id="xtick_18">
     <g id="line2d_44">
      <g>
       <use xlink:href="#mf1bdaf46e0" x="1152.972193" y="320.4" style="stroke: #000000; stroke-width: 0.8"/>
      </g>
     </g>
     <g id="text_44">
      <!-- 100 -->
      <g transform="translate(1143.428443 334.998438) scale(0.1 -0.1)">
       <use xlink:href="#DejaVuSans-31"/>
       <use xlink:href="#DejaVuSans-30" x="63.623047"/>
       <use xlink:href="#DejaVuSans-30" x="127.246094"/>
      </g>
     </g>
    </g>
    <g id="text_45">
     <!-- epoch -->
     <g transform="translate(1003.465993 348.676562) scale(0.1 -0.1)">
      <use xlink:href="#DejaVuSans-65"/>
      <use xlink:href="#DejaVuSans-70" x="61.523438"/>
      <use xlink:href="#DejaVuSans-6f" x="125"/>
      <use xlink:href="#DejaVuSans-63" x="186.181641"/>
      <use xlink:href="#DejaVuSans-68" x="241.162109"/>
     </g>
    </g>
   </g>
   <g id="matplotlib.axis_6">
    <g id="ytick_19">
     <g id="line2d_45">
      <g>
       <use xlink:href="#m378df2d7a8" x="870.988235" y="55.8" style="stroke: #000000; stroke-width: 0.8"/>
      </g>
     </g>
     <g id="text_46">
      <!-- $\mathdefault{10^{-4}}$ -->
      <g transform="translate(840.488235 59.599219) scale(0.1 -0.1)">
       <defs>
        <path id="DejaVuSans-2212" d="M 678 2272 
L 4684 2272 
L 4684 1741 
L 678 1741 
L 678 2272 
z
" transform="scale(0.015625)"/>
       </defs>
       <use xlink:href="#DejaVuSans-31" transform="translate(0 0.684375)"/>
       <use xlink:href="#DejaVuSans-30" transform="translate(63.623047 0.684375)"/>
       <use xlink:href="#DejaVuSans-2212" transform="translate(128.203125 38.965625) scale(0.7)"/>
       <use xlink:href="#DejaVuSans-34" transform="translate(186.855469 38.965625) scale(0.7)"/>
      </g>
     </g>
    </g>
    <g id="ytick_20">
     <g id="line2d_46">
      <defs>
       <path id="mee44e2d8bb" d="M 0 0 
L -2 0 
" style="stroke: #000000; stroke-width: 0.6"/>
      </defs>
      <g>
       <use xlink:href="#mee44e2d8bb" x="870.988235" y="274.657665" style="stroke: #000000; stroke-width: 0.6"/>
      </g>
     </g>
     <g id="text_47">
      <!-- $\mathdefault{3\times10^{-5}}$ -->
      <g transform="translate(823.488235 278.456884) scale(0.1 -0.1)">
       <defs>
        <path id="DejaVuSans-33" d="M 2597 2516 
Q 3050 2419 3304 2112 
Q 3559 1806 3559 1356 
Q 3559 666 3084 287 
Q 2609 -91 1734 -91 
Q 1441 -91 1130 -33 
Q 819 25 488 141 
L 488 750 
Q 750 597 1062 519 
Q 1375 441 1716 441 
Q 2309 441 2620 675 
Q 2931 909 2931 1356 
Q 2931 1769 2642 2001 
Q 2353 2234 1838 2234 
L 1294 2234 
L 1294 2753 
L 1863 2753 
Q 2328 2753 2575 2939 
Q 2822 3125 2822 3475 
Q 2822 3834 2567 4026 
Q 2313 4219 1838 4219 
Q 1578 4219 1281 4162 
Q 984 4106 628 3988 
L 628 4550 
Q 988 4650 1302 4700 
Q 1616 4750 1894 4750 
Q 2613 4750 3031 4423 
Q 3450 4097 3450 3541 
Q 3450 3153 3228 2886 
Q 3006 2619 2597 2516 
z
" transform="scale(0.015625)"/>
        <path id="DejaVuSans-d7" d="M 4488 3438 
L 3059 2003 
L 4488 575 
L 4116 197 
L 2681 1631 
L 1247 197 
L 878 575 
L 2303 2003 
L 878 3438 
L 1247 3816 
L 2681 2381 
L 4116 3816 
L 4488 3438 
z
" transform="scale(0.015625)"/>
       </defs>
       <use xlink:href="#DejaVuSans-33" transform="translate(0 0.684375)"/>
       <use xlink:href="#DejaVuSans-d7" transform="translate(83.105469 0.684375)"/>
       <use xlink:href="#DejaVuSans-31" transform="translate(186.376953 0.684375)"/>
       <use xlink:href="#DejaVuSans-30" transform="translate(250 0.684375)"/>
       <use xlink:href="#DejaVuSans-2212" transform="translate(314.580078 38.965625) scale(0.7)"/>
       <use xlink:href="#DejaVuSans-35" transform="translate(373.232422 38.965625) scale(0.7)"/>
      </g>
     </g>
    </g>
    <g id="ytick_21">
     <g id="line2d_47">
      <g>
       <use xlink:href="#mee44e2d8bb" x="870.988235" y="222.36294" style="stroke: #000000; stroke-width: 0.6"/>
      </g>
     </g>
     <g id="text_48">
      <!-- $\mathdefault{4\times10^{-5}}$ -->
      <g transform="translate(823.488235 226.162159) scale(0.1 -0.1)">
       <use xlink:href="#DejaVuSans-34" transform="translate(0 0.684375)"/>
       <use xlink:href="#DejaVuSans-d7" transform="translate(83.105469 0.684375)"/>
       <use xlink:href="#DejaVuSans-31" transform="translate(186.376953 0.684375)"/>
       <use xlink:href="#DejaVuSans-30" transform="translate(250 0.684375)"/>
       <use xlink:href="#DejaVuSans-2212" transform="translate(314.580078 38.965625) scale(0.7)"/>
       <use xlink:href="#DejaVuSans-35" transform="translate(373.232422 38.965625) scale(0.7)"/>
      </g>
     </g>
    </g>
    <g id="ytick_22">
     <g id="line2d_48">
      <g>
       <use xlink:href="#mee44e2d8bb" x="870.988235" y="181.8" style="stroke: #000000; stroke-width: 0.6"/>
      </g>
     </g>
    </g>
    <g id="ytick_23">
     <g id="line2d_49">
      <g>
       <use xlink:href="#mee44e2d8bb" x="870.988235" y="148.657665" style="stroke: #000000; stroke-width: 0.6"/>
      </g>
     </g>
     <g id="text_49">
      <!-- $\mathdefault{6\times10^{-5}}$ -->
      <g transform="translate(823.488235 152.456884) scale(0.1 -0.1)">
       <use xlink:href="#DejaVuSans-36" transform="translate(0 0.684375)"/>
       <use xlink:href="#DejaVuSans-d7" transform="translate(83.105469 0.684375)"/>
       <use xlink:href="#DejaVuSans-31" transform="translate(186.376953 0.684375)"/>
       <use xlink:href="#DejaVuSans-30" transform="translate(250 0.684375)"/>
       <use xlink:href="#DejaVuSans-2212" transform="translate(314.580078 38.965625) scale(0.7)"/>
       <use xlink:href="#DejaVuSans-35" transform="translate(373.232422 38.965625) scale(0.7)"/>
      </g>
     </g>
    </g>
    <g id="ytick_24">
     <g id="line2d_50">
      <g>
       <use xlink:href="#mee44e2d8bb" x="870.988235" y="120.63622" style="stroke: #000000; stroke-width: 0.6"/>
      </g>
     </g>
    </g>
    <g id="ytick_25">
     <g id="line2d_51">
      <g>
       <use xlink:href="#mee44e2d8bb" x="870.988235" y="96.36294" style="stroke: #000000; stroke-width: 0.6"/>
      </g>
     </g>
    </g>
    <g id="ytick_26">
     <g id="line2d_52">
      <g>
       <use xlink:href="#mee44e2d8bb" x="870.988235" y="74.95239" style="stroke: #000000; stroke-width: 0.6"/>
      </g>
     </g>
    </g>
   </g>
   <g id="line2d_53">
    <path d="M 884.416043 55.8 
L 887.128731 55.8 
L 889.84142 55.8 
L 892.554108 55.8 
L 895.266796 55.8 
L 897.979485 55.8 
L 900.692173 55.8 
L 903.404861 55.8 
L 906.11755 55.8 
L 908.830238 55.8 
L 911.542927 55.8 
L 914.255615 55.8 
L 916.968303 55.8 
L 919.680992 55.8 
L 922.39368 55.8 
L 925.106368 55.8 
L 927.819057 55.8 
L 930.531745 55.8 
L 933.244434 55.8 
L 935.957122 55.8 
L 938.66981 55.8 
L 941.382499 55.8 
L 944.095187 55.8 
L 946.807876 55.8 
L 949.520564 55.8 
L 952.233252 55.8 
L 954.945941 55.8 
L 957.658629 55.8 
L 960.371317 55.8 
L 963.084006 55.8 
L 965.796694 55.8 
L 968.509383 55.8 
L 971.222071 55.8 
L 973.934759 55.8 
L 976.647448 55.8 
L 979.360136 55.8 
L 982.072825 55.8 
L 984.785513 55.8 
L 987.498201 55.8 
L 990.21089 55.8 
L 992.923578 55.8 
L 995.636266 55.8 
L 998.348955 55.8 
L 1001.061643 55.8 
L 1003.774332 55.8 
L 1006.48702 55.8 
L 1009.199708 55.8 
L 1011.912397 55.8 
L 1014.625085 55.8 
L 1017.337773 55.8 
L 1020.050462 55.8 
L 1022.76315 55.8 
L 1025.475839 55.8 
L 1028.188527 55.8 
L 1030.901215 55.8 
L 1033.613904 181.8 
L 1036.326592 181.8 
L 1039.039281 181.8 
L 1041.751969 181.8 
L 1044.464657 181.8 
L 1047.177346 181.8 
L 1049.890034 181.8 
L 1052.602722 181.8 
L 1055.315411 181.8 
L 1058.028099 181.8 
L 1060.740788 181.8 
L 1063.453476 181.8 
L 1066.166164 181.8 
L 1068.878853 181.8 
L 1071.591541 181.8 
L 1074.304229 181.8 
L 1077.016918 181.8 
L 1079.729606 181.8 
L 1082.442295 181.8 
L 1085.154983 181.8 
L 1087.867671 181.8 
L 1090.58036 181.8 
L 1093.293048 181.8 
L 1096.005737 181.8 
L 1098.718425 181.8 
L 1101.431113 181.8 
L 1104.143802 181.8 
L 1106.85649 181.8 
L 1109.569178 181.8 
L 1112.281867 181.8 
L 1114.994555 181.8 
L 1117.707244 181.8 
L 1120.419932 181.8 
L 1123.13262 181.8 
L 1125.845309 181.8 
L 1128.557997 181.8 
L 1131.270685 181.8 
L 1133.983374 181.8 
L 1136.696062 307.8 
L 1139.408751 307.8 
L 1142.121439 307.8 
L 1144.834127 307.8 
L 1147.546816 307.8 
L 1150.259504 307.8 
L 1152.972193 307.8 
" clip-path="url(#p843a5b565b)" style="fill: none; stroke: #1f77b4; stroke-width: 1.5; stroke-linecap: square"/>
   </g>
   <g id="patch_15">
    <path d="M 870.988235 320.4 
L 870.988235 43.2 
" style="fill: none; stroke: #000000; stroke-width: 0.8; stroke-linejoin: miter; stroke-linecap: square"/>
   </g>
   <g id="patch_16">
    <path d="M 1166.4 320.4 
L 1166.4 43.2 
" style="fill: none; stroke: #000000; stroke-width: 0.8; stroke-linejoin: miter; stroke-linecap: square"/>
   </g>
   <g id="patch_17">
    <path d="M 870.988235 320.4 
L 1166.4 320.4 
" style="fill: none; stroke: #000000; stroke-width: 0.8; stroke-linejoin: miter; stroke-linecap: square"/>
   </g>
   <g id="patch_18">
    <path d="M 870.988235 43.2 
L 1166.4 43.2 
" style="fill: none; stroke: #000000; stroke-width: 0.8; stroke-linejoin: miter; stroke-linecap: square"/>
   </g>
   <g id="text_50">
    <!-- Learning Rate -->
    <g transform="translate(976.982868 37.2) scale(0.12 -0.12)">
     <defs>
      <path id="DejaVuSans-67" d="M 2906 1791 
Q 2906 2416 2648 2759 
Q 2391 3103 1925 3103 
Q 1463 3103 1205 2759 
Q 947 2416 947 1791 
Q 947 1169 1205 825 
Q 1463 481 1925 481 
Q 2391 481 2648 825 
Q 2906 1169 2906 1791 
z
M 3481 434 
Q 3481 -459 3084 -895 
Q 2688 -1331 1869 -1331 
Q 1566 -1331 1297 -1286 
Q 1028 -1241 775 -1147 
L 775 -588 
Q 1028 -725 1275 -790 
Q 1522 -856 1778 -856 
Q 2344 -856 2625 -561 
Q 2906 -266 2906 331 
L 2906 616 
Q 2728 306 2450 153 
Q 2172 0 1784 0 
Q 1141 0 747 490 
Q 353 981 353 1791 
Q 353 2603 747 3093 
Q 1141 3584 1784 3584 
Q 2172 3584 2450 3431 
Q 2728 3278 2906 2969 
L 2906 3500 
L 3481 3500 
L 3481 434 
z
" transform="scale(0.015625)"/>
      <path id="DejaVuSans-20" transform="scale(0.015625)"/>
      <path id="DejaVuSans-52" d="M 2841 2188 
Q 3044 2119 3236 1894 
Q 3428 1669 3622 1275 
L 4263 0 
L 3584 0 
L 2988 1197 
Q 2756 1666 2539 1819 
Q 2322 1972 1947 1972 
L 1259 1972 
L 1259 0 
L 628 0 
L 628 4666 
L 2053 4666 
Q 2853 4666 3247 4331 
Q 3641 3997 3641 3322 
Q 3641 2881 3436 2590 
Q 3231 2300 2841 2188 
z
M 1259 4147 
L 1259 2491 
L 2053 2491 
Q 2509 2491 2742 2702 
Q 2975 2913 2975 3322 
Q 2975 3731 2742 3939 
Q 2509 4147 2053 4147 
L 1259 4147 
z
" transform="scale(0.015625)"/>
     </defs>
     <use xlink:href="#DejaVuSans-4c"/>
     <use xlink:href="#DejaVuSans-65" x="53.962891"/>
     <use xlink:href="#DejaVuSans-61" x="115.486328"/>
     <use xlink:href="#DejaVuSans-72" x="176.765625"/>
     <use xlink:href="#DejaVuSans-6e" x="216.128906"/>
     <use xlink:href="#DejaVuSans-69" x="279.507812"/>
     <use xlink:href="#DejaVuSans-6e" x="307.291016"/>
     <use xlink:href="#DejaVuSans-67" x="370.669922"/>
     <use xlink:href="#DejaVuSans-20" x="434.146484"/>
     <use xlink:href="#DejaVuSans-52" x="465.933594"/>
     <use xlink:href="#DejaVuSans-61" x="533.166016"/>
     <use xlink:href="#DejaVuSans-74" x="594.445312"/>
     <use xlink:href="#DejaVuSans-65" x="633.654297"/>
    </g>
   </g>
   <g id="legend_3">
    <g id="patch_19">
     <path d="M 1061.290625 66.15625 
L 1159.4 66.15625 
Q 1161.4 66.15625 1161.4 64.15625 
L 1161.4 50.2 
Q 1161.4 48.2 1159.4 48.2 
L 1061.290625 48.2 
Q 1059.290625 48.2 1059.290625 50.2 
L 1059.290625 64.15625 
Q 1059.290625 66.15625 1061.290625 66.15625 
z
" style="fill: #ffffff; opacity: 0.8; stroke: #cccccc; stroke-linejoin: miter"/>
    </g>
    <g id="line2d_54">
     <path d="M 1063.290625 56.298437 
L 1073.290625 56.298437 
L 1083.290625 56.298437 
" style="fill: none; stroke: #1f77b4; stroke-width: 1.5; stroke-linecap: square"/>
    </g>
    <g id="text_51">
     <!-- learning_rate -->
     <g transform="translate(1091.290625 59.798437) scale(0.1 -0.1)">
      <use xlink:href="#DejaVuSans-6c"/>
      <use xlink:href="#DejaVuSans-65" x="27.783203"/>
      <use xlink:href="#DejaVuSans-61" x="89.306641"/>
      <use xlink:href="#DejaVuSans-72" x="150.585938"/>
      <use xlink:href="#DejaVuSans-6e" x="189.949219"/>
      <use xlink:href="#DejaVuSans-69" x="253.328125"/>
      <use xlink:href="#DejaVuSans-6e" x="281.111328"/>
      <use xlink:href="#DejaVuSans-67" x="344.490234"/>
      <use xlink:href="#DejaVuSans-5f" x="407.966797"/>
      <use xlink:href="#DejaVuSans-72" x="457.966797"/>
      <use xlink:href="#DejaVuSans-61" x="499.080078"/>
      <use xlink:href="#DejaVuSans-74" x="560.359375"/>
      <use xlink:href="#DejaVuSans-65" x="599.568359"/>
     </g>
    </g>
   </g>
  </g>
 </g>
 <defs>
  <clipPath id="pb0008d5d45">
   <rect x="162" y="43.2" width="295.411765" height="277.2"/>
  </clipPath>
  <clipPath id="pf9b640189a">
   <rect x="516.494118" y="43.2" width="295.411765" height="277.2"/>
  </clipPath>
  <clipPath id="p843a5b565b">
   <rect x="870.988235" y="43.2" width="295.411765" height="277.2"/>
  </clipPath>
 </defs>
</svg>
